{"asset":{"generator":"3D Builder","version":"2.0"},"scene":0,"scenes":[{"nodes":[0]}],"nodes":[{"mesh":0,"matrix":[39.370079040527344,0,0,0,0,-4.6932791519793682E-6,-39.370075225830078,0,0,39.370075225830078,-4.6932791519793682E-6,0,-0.007304496131837368,-0.004860003013163805,0.025308674201369286,1]}],"meshes":[{"primitives":[{"attributes":{"POSITION":0},"mode":4,"indices":3,"material":0},{"attributes":{"POSITION":1},"mode":4,"indices":4,"material":1},{"attributes":{"POSITION":2},"mode":4,"indices":5,"material":2}]}],"materials":[{"name":"Side wood","pbrMetallicRoughness":{"baseColorFactor":[0.21403305232524872,0.066503159701824188,0.022482190281152725,1],"metallicFactor":0,"roughnessFactor":0.699999988079071},"alphaMode":"OPAQUE"},{"name":"Mill cloath","pbrMetallicRoughness":{"baseColorFactor":[0.94039183855056763,0.39454522728919983,0.10854472219944,1],"metallicFactor":0,"roughnessFactor":0.62056738138198853},"alphaMode":"OPAQUE"},{"name":"mill mat","pbrMetallicRoughness":{"baseColorFactor":[1,0.80066531896591187,0.042984604835510254,1],"metallicFactor":0,"roughnessFactor":0.32978725433349609},"alphaMode":"OPAQUE"}],"accessors":[{"bufferView":0,"byteOffset":0,"count":876,"componentType":5126,"type":"VEC3","min":[-0.058464162051677704,-0.0375051312148571,0.023542243987321854],"max":[0.058833036571741104,-0.030440149828791618,0.14083945751190186]},{"bufferView":0,"byteOffset":10512,"count":194,"componentType":5126,"type":"VEC3","min":[-0.056838564574718475,-0.036844730377197266,0.025218645110726357],"max":[0.05715663731098175,-0.034253932535648346,0.13916304707527161]},{"bufferView":0,"byteOffset":12840,"count":32,"componentType":5126,"type":"VEC3","min":[-0.0039557600393891335,-0.0375051312148571,0.078406244516372681],"max":[0.00396904069930315,-0.037403535097837448,0.086331039667129517]},{"bufferView":1,"byteOffset":0,"count":4950,"componentType":5125,"type":"SCALAR"},{"bufferView":1,"byteOffset":19800,"count":732,"componentType":5125,"type":"SCALAR"},{"bufferView":1,"byteOffset":22728,"count":90,"componentType":5125,"type":"SCALAR"}],"bufferViews":[{"buffer":0,"byteOffset":0,"byteLength":13224,"byteStride":12,"target":34962},{"buffer":0,"byteOffset":13224,"byteLength":23088,"target":34963}],"buffers":[{"byteLength":36312,"uri":"Windmill_propeller.bin"}]}