{"asset":{"version":"2.0","generator":"THREE.JS GLTFExporter"},"scenes":[{"nodes":[0],"name":"AuxScene"}],"scene":0,"nodes":[{"mesh":0}],"meshes":[{"primitives":[{"mode":4,"attributes":{"POSITION":0,"NORMAL":1},"material":0}]}],"materials":[{"pbrMetallicRoughness":{"baseColorFactor":[0.5019607843137255,0.5019607843137255,0.5019607843137255,1],"metallicFactor":0,"roughnessFactor":1}}],"accessors":[{"bufferView":0,"componentType":5126,"count":4899,"max":[74.69999694824219,1.0996110439300537,74.69999694824219],"min":[-74.69999694824219,0.09961099922657013,-74.69999694824219],"type":"VEC3"},{"bufferView":1,"componentType":5126,"count":4899,"max":[0.2701481282711029,1,0.2961750328540802],"min":[-0.44721904397010803,0.48663660883903503,-0.8474957942962646],"type":"VEC3"}],"bufferViews":[{"buffer":0,"byteOffset":0,"byteLength":58788,"byteStride":12,"target":34962},{"buffer":0,"byteOffset":58788,"byteLength":58788,"byteStride":12,"target":34962}],"buffers":[{"byteLength":117576,"uri":"data:application/octet-stream;base64,"}]}