{"asset":{"generator":"3D Builder","version":"2.0"},"scene":0,"scenes":[{"nodes":[0]}],"nodes":[{"children":[1,2,3,4,5,6,7,8,9]},{"mesh":0,"matrix":[39.370079040527344,0,0,0,0,-4.6932791519793682E-6,-39.370075225830078,0,0,39.370075225830078,-4.6932791519793682E-6,0,-0.007304496131837368,-0.004860003013163805,0.025308674201369286,1]},{"mesh":1,"matrix":[39.370079040527344,0,0,0,0,-4.6932791519793682E-6,-39.370075225830078,0,0,39.370075225830078,-4.6932791519793682E-6,0,-0.007304496131837368,-0.004860003013163805,0.025308674201369286,1]},{"mesh":2,"matrix":[39.370079040527344,0,0,0,0,-4.6932791519793682E-6,-39.370075225830078,0,0,39.370075225830078,-4.6932791519793682E-6,0,-0.007304496131837368,-0.004860003013163805,0.025308674201369286,1]},{"mesh":3,"matrix":[39.370079040527344,0,0,0,0,-4.6932791519793682E-6,-39.370075225830078,0,0,39.370075225830078,-4.6932791519793682E-6,0,-0.007304496131837368,-0.004860003013163805,0.025308674201369286,1]},{"mesh":4,"matrix":[39.370079040527344,0,0,0,0,-4.6932791519793682E-6,-39.370075225830078,0,0,39.370075225830078,-4.6932791519793682E-6,0,-0.007304496131837368,-0.004860003013163805,0.025308674201369286,1]},{"mesh":5,"matrix":[39.370079040527344,0,0,0,0,-4.6932791519793682E-6,-39.370075225830078,0,0,39.370075225830078,-4.6932791519793682E-6,0,-0.007304496131837368,-0.004860003013163805,0.025308674201369286,1]},{"mesh":6,"matrix":[39.370079040527344,0,0,0,0,-4.6932791519793682E-6,-39.370075225830078,0,0,39.370075225830078,-4.6932791519793682E-6,0,-0.007304496131837368,-0.004860003013163805,0.025308674201369286,1]},{"mesh":7,"matrix":[39.370079040527344,0,0,0,0,-4.6932791519793682E-6,-39.370075225830078,0,0,39.370075225830078,-4.6932791519793682E-6,0,-0.007304496131837368,-0.004860003013163805,0.025308674201369286,1]},{"mesh":8,"matrix":[39.370079040527344,0,0,0,0,-4.6932791519793682E-6,-39.370075225830078,0,0,39.370075225830078,-4.6932791519793682E-6,0,-0.007304496131837368,-0.004860003013163805,0.025308674201369286,1]}],"meshes":[{"primitives":[{"attributes":{"POSITION":0},"mode":4,"indices":3,"material":0},{"attributes":{"POSITION":1},"mode":4,"indices":4,"material":1},{"attributes":{"POSITION":2},"mode":4,"indices":5,"material":2}]},{"primitives":[{"attributes":{"POSITION":6},"mode":4,"indices":7,"material":2}]},{"primitives":[{"attributes":{"POSITION":8},"mode":4,"indices":9,"material":2}]},{"primitives":[{"attributes":{"POSITION":10},"mode":4,"indices":11,"material":2}]},{"primitives":[{"attributes":{"POSITION":12},"mode":4,"indices":13,"material":2}]},{"primitives":[{"attributes":{"POSITION":14},"mode":4,"indices":15,"material":2}]},{"primitives":[{"attributes":{"POSITION":16},"mode":4,"indices":17,"material":2}]},{"primitives":[{"attributes":{"POSITION":18},"mode":4,"indices":19,"material":1}]},{"primitives":[{"attributes":{"POSITION":20},"mode":4,"indices":21,"material":1}]}],"materials":[{"name":"Side wood","pbrMetallicRoughness":{"baseColorFactor":[0.21403305232524872,0.066503159701824188,0.022482190281152725,1],"metallicFactor":0,"roughnessFactor":0.699999988079071},"alphaMode":"OPAQUE"},{"name":"Shed wood","pbrMetallicRoughness":{"baseColorFactor":[0.800000011920929,0.11470438539981842,0.058642465621232986,1],"metallicFactor":0,"roughnessFactor":0.5},"alphaMode":"OPAQUE"},{"name":"wood","pbrMetallicRoughness":{"baseColorFactor":[0.61049556732177734,0.27049785852432251,0.10224172472953796,1],"metallicFactor":0,"roughnessFactor":0.5},"alphaMode":"OPAQUE"}],"accessors":[{"bufferView":0,"byteOffset":0,"count":1655,"componentType":5126,"type":"VEC3","min":[-0.031692564487457275,-0.030440149828791618,0.00012344415881671011],"max":[0.031604241579771042,0.036358073353767395,0.10995305329561234]},{"bufferView":0,"byteOffset":19860,"count":549,"componentType":5126,"type":"VEC3","min":[-0.035400964319705963,-0.02795473113656044,0.06651904433965683],"max":[0.035312637686729431,0.038745667785406113,0.11249304562807083]},{"bufferView":0,"byteOffset":26448,"count":1692,"componentType":5126,"type":"VEC3","min":[-0.028390564024448395,-0.022722331807017326,0.0014442441752180457],"max":[0.027794240042567253,0.032192472368478775,0.067230246961116791]},{"bufferView":1,"byteOffset":0,"count":8643,"componentType":5125,"type":"SCALAR"},{"bufferView":1,"byteOffset":34572,"count":2973,"componentType":5125,"type":"SCALAR"},{"bufferView":1,"byteOffset":46464,"count":9006,"componentType":5125,"type":"SCALAR"},{"bufferView":2,"byteOffset":0,"count":51,"componentType":5126,"type":"VEC3","min":[-0.0272221639752388,-0.017794732004404068,0.04589424654841423],"max":[0.023679440841078758,0.031430471688508987,0.055597040802240372]},{"bufferView":3,"byteOffset":0,"count":294,"componentType":5125,"type":"SCALAR"},{"bufferView":4,"byteOffset":0,"count":22,"componentType":5126,"type":"VEC3","min":[0.024238236248493195,-0.020080730319023132,0.059711847454309464],"max":[0.028302239254117012,0.031328868120908737,0.067230246961116791]},{"bufferView":5,"byteOffset":0,"count":120,"componentType":5125,"type":"SCALAR"},{"bufferView":6,"byteOffset":0,"count":23,"componentType":5126,"type":"VEC3","min":[-0.0227009616792202,-0.021503131836652756,0.041728649288415909],"max":[0.023527039214968681,-0.017693132162094116,0.048434246331453323]},{"bufferView":7,"byteOffset":0,"count":126,"componentType":5125,"type":"SCALAR"},{"bufferView":8,"byteOffset":0,"count":22,"componentType":5126,"type":"VEC3","min":[-0.023615360260009766,-0.022011131048202515,0.048281848430633545],"max":[0.023679440841078758,-0.0181503314524889,0.055597040802240372]},{"bufferView":9,"byteOffset":0,"count":120,"componentType":5125,"type":"SCALAR"},{"bufferView":10,"byteOffset":0,"count":22,"componentType":5126,"type":"VEC3","min":[-0.023818561807274818,-0.022976331412792206,0.062556646764278412],"max":[0.024543039500713348,-0.019166329875588417,0.067585848271846771]},{"bufferView":11,"byteOffset":0,"count":120,"componentType":5125,"type":"SCALAR"},{"bufferView":12,"byteOffset":0,"count":22,"componentType":5126,"type":"VEC3","min":[-0.023818561807274818,0.028636468574404716,0.062556646764278412],"max":[0.024543039500713348,0.032446470111608505,0.067585848271846771]},{"bufferView":13,"byteOffset":0,"count":120,"componentType":5125,"type":"SCALAR"},{"bufferView":14,"byteOffset":0,"count":182,"componentType":5126,"type":"VEC3","min":[-0.035400964319705963,-0.01169873122125864,0.067077845335006714],"max":[0.035312637686729431,0.0060812695883214474,0.11254384368658066]},{"bufferView":15,"byteOffset":0,"count":1092,"componentType":5125,"type":"SCALAR"},{"bufferView":16,"byteOffset":0,"count":75,"componentType":5126,"type":"VEC3","min":[-0.035400964319705963,0.0063860686495900154,0.067128643393516541],"max":[0.035312637686729431,0.012482068501412868,0.11239144206047058]},{"bufferView":17,"byteOffset":0,"count":438,"componentType":5125,"type":"SCALAR"}],"bufferViews":[{"buffer":0,"byteOffset":0,"byteLength":46752,"byteStride":12,"target":34962},{"buffer":0,"byteOffset":46752,"byteLength":82488,"target":34963},{"buffer":0,"byteOffset":129240,"byteLength":612,"byteStride":12,"target":34962},{"buffer":0,"byteOffset":129852,"byteLength":1176,"target":34963},{"buffer":0,"byteOffset":131028,"byteLength":264,"byteStride":12,"target":34962},{"buffer":0,"byteOffset":131292,"byteLength":480,"target":34963},{"buffer":0,"byteOffset":131772,"byteLength":276,"byteStride":12,"target":34962},{"buffer":0,"byteOffset":132048,"byteLength":504,"target":34963},{"buffer":0,"byteOffset":132552,"byteLength":264,"byteStride":12,"target":34962},{"buffer":0,"byteOffset":132816,"byteLength":480,"target":34963},{"buffer":0,"byteOffset":133296,"byteLength":264,"byteStride":12,"target":34962},{"buffer":0,"byteOffset":133560,"byteLength":480,"target":34963},{"buffer":0,"byteOffset":134040,"byteLength":264,"byteStride":12,"target":34962},{"buffer":0,"byteOffset":134304,"byteLength":480,"target":34963},{"buffer":0,"byteOffset":134784,"byteLength":2184,"byteStride":12,"target":34962},{"buffer":0,"byteOffset":136968,"byteLength":4368,"target":34963},{"buffer":0,"byteOffset":141336,"byteLength":900,"byteStride":12,"target":34962},{"buffer":0,"byteOffset":142236,"byteLength":1752,"target":34963}],"buffers":[{"byteLength":143988,"uri":"Windmill.bin"}]}